<svg viewBox="0 0 286.13 121.25" xmlns="http://www.w3.org/2000/svg"><g fill="#1d1d1b"><path d="m0 103.73h1.44v7.48h10.44v-7.48h1.42v17.27h-1.42v-8.45h-10.44v8.45h-1.44z"/><path d="m28.45 121.25c-4.72 0-8-3.55-8-8.9s3.33-8.89 8.05-8.89 8.08 3.55 8.08 8.89-3.38 8.9-8.13 8.9zm0-16.47c-3.6 0-6.56 2.73-6.56 7.57s3 7.58 6.56 7.58 6.55-2.73 6.55-7.58-2.92-7.57-6.55-7.57z"/><path d="m41 103.73h14v1.34h-6.35v15.93h-1.41v-15.93h-6.24z"/><path d="m61.3 103.73h11.8v1.32h-10.36v6.41h9.47v1.32h-9.47v6.88h10.49v1.34h-11.93z"/><path d="m80.43 103.73h1.45v15.91h9.51v1.36h-11z"/><path d="m96.66 116.13h1.47c.22 2.51 2.23 3.83 5.21 3.83s5-1.34 5-3.48c0-1.39-.84-2.46-2.65-2.91l-4.8-1.16c-2.24-.55-3.7-2-3.7-4.25 0-2.69 2.48-4.7 6-4.7s6.06 2 6.13 5h-1.46c-.2-2.58-2.21-3.75-4.67-3.75-2.61 0-4.55 1.32-4.55 3.38 0 1.39.82 2.46 2.66 2.91l4.79 1.17c2.24.54 3.68 2 3.68 4.27 0 2.76-2.41 4.77-6.46 4.77-3.77.04-6.45-1.77-6.65-5.08z"/><path d="m135.77 118.87a7.69 7.69 0 0 1 -5.79 2.38c-3.18 0-5.42-1.74-5.42-4.35 0-2.18 1.47-3.6 4.3-5.09-1.24-1.32-2.31-2.74-2.31-4.45a4 4 0 0 1 4.23-3.9 3.92 3.92 0 0 1 4.15 3.88c0 2.08-1.62 3.47-4 4.74l4.72 4.82a9.76 9.76 0 0 0 1.27-5.12h1.32a11.07 11.07 0 0 1 -1.67 6.07l3.06 3.13h-1.82zm-.89-.9-5.12-5.27c-2.84 1.52-3.78 2.61-3.78 4.23s1.64 3.08 4 3.08a6.46 6.46 0 0 0 4.9-2.01zm-4.8-6.78c2.36-1.22 3.48-2.29 3.48-3.85a2.64 2.64 0 0 0 -2.76-2.64 2.67 2.67 0 0 0 -2.86 2.66c0 1.29.8 2.41 2.14 3.83z"/><path d="m154.63 103.73h7.16c3.62 0 5.69 1.87 5.69 4.77 0 2.49-1.54 4.2-4.2 4.63l5 7.85h-1.67l-4.89-7.71h-5.62v7.73h-1.44zm7.11 8.23c2.73 0 4.25-1.17 4.25-3.46s-1.52-3.45-4.25-3.45h-5.67v6.95z"/><path d="m175.08 103.73h11.8v1.32h-10.36v6.41h9.48v1.32h-9.47v6.88h10.47v1.34h-11.92z"/><path d="m193 116.13h1.47c.22 2.51 2.23 3.83 5.21 3.83s5-1.34 5-3.48c0-1.39-.84-2.46-2.65-2.91l-4.8-1.16c-2.24-.55-3.7-2-3.7-4.25 0-2.69 2.48-4.7 6-4.7s6.06 2 6.13 5h-1.46c-.2-2.58-2.21-3.75-4.67-3.75-2.61 0-4.55 1.32-4.55 3.38 0 1.39.82 2.46 2.66 2.91l4.79 1.17c2.24.54 3.68 2 3.68 4.27 0 2.76-2.41 4.77-6.46 4.77-3.75.04-6.43-1.77-6.65-5.08z"/><path d="m220.28 121.25c-4.72 0-8.05-3.55-8.05-8.9s3.33-8.89 8.05-8.89 8.07 3.55 8.07 8.89-3.35 8.9-8.07 8.9zm0-16.47c-3.6 0-6.56 2.73-6.56 7.57s3 7.58 6.56 7.58 6.58-2.73 6.58-7.58-2.95-7.57-6.58-7.57z"/><path d="m235.44 103.73h7.15c3.63 0 5.69 1.87 5.69 4.77 0 2.49-1.54 4.2-4.2 4.63l5 7.85h-1.66l-4.9-7.71h-5.61v7.73h-1.44zm7.1 8.23c2.74 0 4.25-1.17 4.25-3.46s-1.51-3.45-4.25-3.45h-5.66v6.95z"/><path d="m254 103.73h14v1.34h-6.28v15.93h-1.42v-15.93h-6.3z"/><path d="m273 116.13h1.46c.23 2.51 2.24 3.83 5.22 3.83s5-1.34 5-3.48c0-1.39-.84-2.46-2.66-2.91l-4.79-1.16c-2.24-.55-3.71-2-3.71-4.25 0-2.69 2.49-4.7 6-4.7s6.07 2 6.14 5h-1.47c-.19-2.58-2.21-3.75-4.67-3.75-2.61 0-4.55 1.32-4.55 3.38 0 1.39.82 2.46 2.66 2.91l4.8 1.17c2.24.54 3.68 2 3.68 4.27 0 2.76-2.41 4.77-6.46 4.77-3.76.04-6.44-1.77-6.65-5.08z"/><path d="m50 66a12.81 12.81 0 0 0 -6.47 2.24h-.53a73.52 73.52 0 0 0 2.19-19.24v-7a127.65 127.65 0 0 0 -.88-14.77v-.47l14.93-1.44v.48a147.38 147.38 0 0 0 -1.12 17.56c0 12.64 1.88 17.32 7.88 17.32 7.42 0 12.53-7.59 12.53-19.56 0-15.49-6.71-20.92-18.12-20.92-5.83 0-12.38 1.83-18 1.83-11.19-.03-16.7-6.46-16.7-18.12h.8c2.87 5.91 8.38 7.83 13.81 7.83 7.74 0 15.17-3.28 23.71-3.28 14.97 0 28.18 10.06 28.18 30.82 0 18.44-9.66 29.78-24.43 29.78-7.1 0-13.65-3.06-17.78-3.06z"/><path d="m95.56 49.66c0-12.86 10-20.28 10-32.89a37.81 37.81 0 0 0 -1.56-11.34h.8c5.2 4.47 9.2 13.17 9.2 21.95 0 13.66-5.19 18.05-5.19 24.67 0 5.19 3.19 8.15 8.06 8.15 5.75 0 9.5-4.16 9.5-12.22 0-5.51-.4-16.52-1-25.95v-.39h13.1v.36c-.16 4.56-.4 11.42-.4 16v11.42c0 6.54.4 14.45.87 18.84h-.55a16.53 16.53 0 0 0 -7.62-2.26c-4.71 0-8 3-15.41 3-11.89.06-19.8-7.69-19.8-19.34z"/><path d="m154.08 56.84c4.79 0 8.86 2.56 12.54 2.56 3.51 0 5.74-2.08 5.74-5.11 0-10.14-28.18-.16-28.18-19.88 0-9.41 6.82-14.13 15.82-14.13 6.55 0 11.74 2.55 16.45 2.55 2.79 0 4.87-.87 5.82-2.63h.56c1 6.63-1.83 11.73-9.1 11.73-4.23 0-8.7-2.07-11.81-2.07-3.28 0-5.11 1.75-5.11 4.47 0 10 28.34.16 28.34 19.8 0 9.82-7.19 14.77-16.29 14.77-6.86 0-12.7-2.9-18.13-2.9a12.4 12.4 0 0 0 -7.43 2.24h-.55c.31-7.8 4.79-11.4 11.33-11.4z"/><path d="m188.89 7c0-4.24 3.43-7 8.46-7s8.38 2.79 8.38 7-3.35 7-8.38 7-8.46-2.82-8.46-7zm1.11 14.64h14.61v.36c-.72 7.34-1.36 14.92-1.36 22.59s.64 15.25 1.36 22.59v.32h-14.61v-.32c.72-7.34 1.27-14.93 1.27-22.59s-.54-15.29-1.27-22.59z"/><path d="m226.89 19.16c0 1.84.72 2.48 3.11 2.48h12.3v2.63l-1.68.16c-10.38 1-13.49 3.43-13.49 10.78v17.16c0 4.87 2.71 8.07 6.55 8.07 3 0 6.46-1.84 9.42-4.4h.31c-4.15 9.27-9.26 13-15.8 13-8.39 0-13-5.11-12.94-14.21l.16-21.32c.08-6.31-1.27-8.46-5.9-10.54v-.56c8.94-.79 12.61-6.22 17-17.72h1.12z"/></g></svg>