<svg xmlns:xlink="http://www.w3.org/1999/xlink" xmlns="http://www.w3.org/2000/svg" viewBox="0 0 1683 617" width="1683" height="617"><style fill="#FFFFFF"></style><path d="m142.7 172.7h-41.1c-20.8 0-32.1 4.1-39.7 7.9-21.5 10.9-32.8 30.1-32.8 54.2 0 30.1 21.9 55.3 50.2 61l-5.7 26.3c-41.5-7.5-73.2-44.8-73.2-87.3 0-34.6 18.1-62.9 49.1-78.6 14.7-7.6 31.3-10.6 52.1-10.6h142.3v27.1h-71.8v235.2h-29.4zm147.4-27.1h29.4v109.6h146.1v-109.6h29.5v262.4h-29.5v-125.7h-146.1v125.7h-29.4zm274.6 0h148.7v27.1h-119.3v83.2h112.1v27.1h-112.1v97.8h122v27.1h-151.4z" fill="#FFFFFF"></path><path fill-rule="evenodd" d="m821.9 94.7c0-25.9 8-51.2 26.5-69.2 16.6-16.2 39.2-24.9 64.5-24.9 51.4 0 86.8 39.9 86.8 86.6 0 42.2-31.7 77.9-73.6 85.5l-4.9-26.8c28.3-5.6 49.5-29.7 49.5-58.7 0-32.7-24.6-59.5-57.8-59.5-36.6 0-61.5 27.1-61.5 67v286.1h173.1v27.1h-202.6zm256.1 50.9h29.4v262.3h-29.4zm100.5 0h25.6l158.9 210.1v-210.1h29.5v262.4h-23.8l-160.8-212.3v212.3h-29.4zm283.6 0h84.6c85.3 0 135.9 53.9 135.9 131.4 0 77.6-50.2 131-135.5 131h-85zm82.7 235.3c73.2 0 108.3-42.9 108.3-103.9 0-61.4-35.1-104.3-108.7-104.3h-52.8v208.2z" fill="#FFFFFF"></path><path fill-rule="evenodd" d="m603.8 529h12.1v37.8h44.7v-37.8h12.1v86.2h-12.1v-37.9h-44.7v37.9h-12.1zm136.4-1.5c24.9 0 44.2 19.2 44.2 44 0 25.4-19.3 45.2-44.2 45.2-24.9 0-44.3-19.8-44.3-45.2 0-24.8 19.4-44 44.3-44zm0 78.1c17.6 0 31.8-14.7 31.8-34.1 0-18.8-14.2-33-31.8-33-17.6 0-31.9 14.2-31.9 33 0 19.4 14.3 34.1 31.9 34.1zm84.7-66.1h-29.6v-10.5h71.2v10.5h-29.5v75.7h-12.1zm59.6-10.5h50.1v10.5h-38v27h30.9v10.5h-30.9v27.8h40v10.5h-52.1zm75.6 0h12.1v75.7h38.6v10.5h-50.7zm70.5 67.2c0 0 9.1 9.3 22 9.3 8 0 14.9-4.5 14.9-12.7 0-18.7-41.8-14.7-41.8-41.2 0-13.4 11.6-24 27.8-24 16 0 24.5 8.6 24.5 8.6l-5.5 10c0 0-8-7.4-19-7.4-9.1 0-15.6 5.7-15.6 12.6 0 17.8 41.8 13 41.8 41 0 13.3-10.3 24.3-27.4 24.3-18.3 0-28.6-11.3-28.6-11.3z" fill="#FFFFFF"></path></svg>