<svg xmlns="http://www.w3.org/2000/svg" viewBox="0 0 300 100">
  <style>
    .st0{fill:#003366;}
  </style>
  <g>
    <path class="st0" d="M30.2,40.5c-1.8-1.1-3.9-1.6-6.3-1.6c-2.4,0-4.5,0.5-6.3,1.6c-1.8,1.1-3.2,2.6-4.2,4.5c-1,1.9-1.5,4.1-1.5,6.6
      c0,2.5,0.5,4.7,1.5,6.6c1,1.9,2.4,3.4,4.2,4.5c1.8,1.1,3.9,1.6,6.3,1.6c2.4,0,4.5-0.5,6.3-1.6c1.8-1.1,3.2-2.6,4.2-4.5
      c1-1.9,1.5-4.1,1.5-6.6c0-2.5-0.5-4.7-1.5-6.6C33.4,43.1,32,41.6,30.2,40.5z"/>
    <path class="st0" d="M77.1,40.1c-1.1-0.8-2.4-1.2-3.9-1.2c-1.5,0-2.8,0.4-3.9,1.2c-1.1,0.8-2,1.9-2.6,3.3c-0.6,1.4-0.9,3-0.9,4.8
      c0,1.8,0.3,3.4,0.9,4.8c0.6,1.4,1.5,2.5,2.6,3.3c1.1,0.8,2.4,1.2,3.9,1.2c1.5,0,2.8-0.4,3.9-1.2c1.1-0.8,2-1.9,2.6-3.3
      c0.6-1.4,0.9-3,0.9-4.8c0-1.8-0.3-3.4-0.9-4.8C79.1,42,78.2,40.9,77.1,40.1z"/>
    <path class="st0" d="M150,20c-33.1,0-60,26.9-60,60c0,33.1,26.9,60,60,60c33.1,0,60-26.9,60-60C210,46.9,183.1,20,150,20z
      M59.8,64.3h-8.1V35.7h8.1V64.3z M79.7,64.3h-8.1V35.7h8.1V64.3z M112.2,64.3h-8.1l-13.3-18.9v18.9h-8.1V35.7h8.1l13.3,18.9V35.7h8.1V64.3z
      M146.2,64.3h-22.9V35.7h22.9v6.8h-14.8v4.2h13.7v6.8h-13.7v4h14.8V64.3z M179.8,64.3h-8.1l-13.3-18.9v18.9h-8.1V35.7h8.1l13.3,18.9V35.7
      h8.1V64.3z M213.4,64.3h-22.9V35.7h22.9v6.8h-14.8v4.2h13.7v6.8h-13.7v4h14.8V64.3z"/>
  </g>
</svg>